<svg width="630" height="540" viewBox="0 0 630 540" fill="none" xmlns="http://www.w3.org/2000/svg">
<g filter="url(#filter0_d_53_4)">
<g clip-path="url(#clip0_53_4)">
<rect x="55" y="54" width="520" height="430" rx="215" fill="#ACD7F2"/>
<path d="M369.615 376.368C369.508 376.28 369.369 376.227 369.198 376.227H339.86C339.909 375.305 339.988 372.968 340.041 371.278C340.241 371.334 340.461 371.277 340.639 371.038C341.941 369.296 344.176 369.258 346.087 369.166C348.174 369.065 350.201 368.772 352.176 368.011C356.046 366.519 359.421 363.724 361.792 360.118C363.148 358.055 364.14 355.712 364.678 353.252C364.746 352.94 364.636 352.552 364.354 352.398C362.941 351.621 361.411 351.166 359.823 351.096C359.574 351.084 359.298 351.077 359.012 351.084C365.124 345.666 368.785 337.628 370.468 329.426C371.572 324.046 371.913 318.517 371.902 313.018C371.901 312.752 371.795 312.559 371.642 312.438C371.693 310.437 371.743 308.436 371.794 306.436C371.805 305.98 371.329 305.529 370.902 305.706C364.817 308.221 358.87 311.475 353.798 315.892C354.043 310.49 351.885 305.355 349.887 300.519C347.721 295.273 345.414 290.042 342.775 285.049C342.189 283.94 341.552 282.866 340.811 281.868C340.145 280.972 339.285 279.829 338.24 279.446C337.006 278.994 336.276 280.008 335.685 280.999C335.003 282.14 334.341 283.296 333.706 284.468C331.182 289.124 329.047 294.109 327.959 299.391C327.005 304.021 326.846 308.903 327.834 313.528C327.104 312.518 326.353 311.525 325.587 310.55C323.203 307.518 320.663 304.633 318.118 301.757C317.68 301.262 317.062 301.637 316.944 302.15C316.59 302.006 316.155 302.127 316.056 302.638C314.879 308.729 313.656 314.982 314.199 321.238C314.654 326.481 316.319 331.71 319.773 335.555C322.797 338.921 326.762 341.015 330.313 343.636C332.054 344.921 333.727 346.369 335.039 348.164C336.572 350.263 337.422 352.779 337.886 355.378C338.471 358.658 338.547 362.059 338.622 365.389C338.654 366.813 338.662 368.237 338.651 369.661C338.336 369.426 338.014 369.202 337.686 368.988C337.24 368.617 336.795 368.246 336.349 367.875C336.265 367.69 336.176 367.51 336.102 367.336C335.749 366.502 335.396 365.667 335.043 364.833C334.41 363.339 333.799 361.831 333.11 360.366C331.911 357.819 330.348 355.55 328.26 353.768C326.317 352.111 324.118 350.887 321.804 349.943C319.168 348.867 316.411 348.178 313.639 347.65C313.18 347.562 312.544 347.992 312.773 348.581C314.619 353.338 316.516 358.218 319.829 362.043C321.292 363.732 323.023 365.209 324.971 366.198C327.217 367.339 329.626 367.567 332.019 368.145C332.74 368.32 334.13 368.875 334.291 368.919C335.603 369.271 335.671 369.43 336.173 369.795C336.423 369.938 336.67 370.089 336.913 370.245C337.166 370.456 337.418 370.667 337.671 370.876C337.799 370.983 337.944 371.054 338.091 371.079C338.271 371.219 338.449 371.361 338.624 371.509C338.591 373.082 338.535 374.655 338.452 376.227H312.206C312.034 376.227 311.896 376.281 311.79 376.368C311.378 376.113 310.705 376.321 310.693 376.994C310.514 386.839 310.574 396.689 310.877 406.532C311.167 415.971 311.475 425.486 312.76 434.839C313.463 439.953 314.52 445.013 316.145 449.883C316.278 450.284 316.617 450.431 316.927 450.393C317.093 450.748 317.326 451.038 317.642 451.276C317.875 451.452 318.221 451.397 318.444 451.207H363.476C364.003 451.207 364.224 450.696 364.138 450.266C364.491 450.508 365.074 450.44 365.259 449.882C366.884 445.012 367.942 439.951 368.644 434.838C369.93 425.485 370.237 415.97 370.527 406.531C370.83 396.689 370.89 386.839 370.711 376.993C370.699 376.321 370.026 376.112 369.615 376.368ZM321.649 357.533C325.356 360.62 329.063 363.707 332.771 366.795C330.873 366.312 328.913 366.124 327.052 365.472C322.891 364.015 319.818 360.276 317.687 356.317C316.491 354.093 315.524 351.741 314.597 349.376C317.929 350.079 321.247 351.063 324.257 352.77C325.902 353.703 327.438 354.847 328.751 356.268C330.239 357.878 331.304 359.802 332.216 361.836C332.79 363.117 333.326 364.417 333.873 365.71C333.895 365.764 333.918 365.817 333.94 365.87C330.174 362.734 326.41 359.598 322.644 356.462C322.341 356.21 321.944 356.151 321.648 356.462C321.404 356.72 321.349 357.283 321.649 357.533ZM340.093 369.447C340.093 369.432 340.094 369.415 340.094 369.404C340.158 369.393 340.23 369.299 340.302 369.166C340.307 369.19 340.312 369.213 340.319 369.236C340.242 369.304 340.166 369.374 340.093 369.447ZM360.236 352.638C361.25 352.728 362.244 353.019 363.172 353.465C362.162 357.444 359.898 360.955 356.885 363.506C355.317 364.835 353.53 365.905 351.643 366.61C349.712 367.332 347.779 367.563 345.749 367.668C345.046 367.704 344.31 367.753 343.588 367.868C347.411 364.668 351.373 361.663 355.459 358.862C356.222 358.339 355.515 357.029 354.748 357.554C349.831 360.925 345.096 364.592 340.557 368.527C340.626 368.311 340.676 368.112 340.69 368.012C340.866 367.894 341.001 367.698 341.03 367.424C341.47 363.265 344.666 360.178 347.819 358.149C350.582 356.373 353.534 355.009 356.253 353.196C356.513 353.66 357.175 353.843 357.429 353.225C357.795 352.34 359.516 352.573 360.236 352.638ZM357.397 314.865C361.413 311.857 365.815 309.494 370.356 307.553L370.209 313.358C370.202 313.646 370.32 313.848 370.491 313.966C370.439 323.036 369.339 332.342 365.252 340.409C363.423 344.019 361.043 347.307 358.098 349.942C354.795 352.898 350.762 354.494 347.11 356.843C346.051 357.523 345.019 358.303 344.074 359.181C348.328 349.358 352.881 339.686 357.729 330.186C359.407 326.898 361.12 323.631 362.867 320.384C363.321 319.539 362.104 318.775 361.65 319.62C355.471 331.105 349.72 342.855 344.422 354.838C343.315 357.343 342.227 359.858 341.159 362.383C341.494 354.018 340.531 345.546 342.292 337.328C344.292 327.988 350.191 320.262 357.397 314.865ZM333.591 287.8C334.672 285.608 335.847 283.449 337.129 281.384C337.247 281.193 337.395 280.881 337.626 280.856C337.847 280.832 338.09 281.046 338.251 281.183C338.686 281.551 339.075 282.003 339.436 282.451C340.178 283.368 340.792 284.395 341.361 285.443C343.831 290 345.95 294.824 347.978 299.623C350.202 304.888 352.83 310.579 352.352 316.524C352.333 316.758 352.402 316.935 352.516 317.055C350.878 318.595 349.342 320.266 347.94 322.09C346.598 323.834 345.387 325.695 344.341 327.657C342.866 318.534 341.392 309.411 339.918 300.288C339.479 297.569 339.038 294.851 338.599 292.131C338.444 291.173 337.086 291.579 337.241 292.534C338.799 302.174 340.357 311.815 341.915 321.456C342.355 324.175 342.794 326.894 343.234 329.613C343.245 329.682 343.263 329.743 343.286 329.799C342.613 331.284 342.034 332.818 341.571 334.4C340.838 336.901 340.405 339.477 340.154 342.078C339.524 341.192 338.962 340.254 338.467 339.265C338.243 338.817 337.804 338.811 337.497 339.032C337.426 335.284 336.713 331.537 335.541 328.007C334.266 324.166 332.459 320.597 330.343 317.237C330.349 317.14 330.335 317.034 330.291 316.917C326.692 307.249 329.225 296.645 333.591 287.8ZM335.602 344.967C331.854 336.59 328.045 328.244 324.173 319.931C323.028 317.475 321.878 315.02 320.723 312.57C320.314 311.701 319.098 312.466 319.506 313.335C323.532 321.875 327.493 330.451 331.387 339.062C332.244 340.956 333.096 342.852 333.947 344.751C333.769 344.581 333.589 344.413 333.406 344.251C330.098 341.298 326.147 339.337 322.795 336.452C321.004 334.912 319.467 333.115 318.323 330.969C317.094 328.666 316.325 326.113 315.892 323.506C314.763 316.709 316.109 309.792 317.395 303.139C325.75 312.59 334.706 323.091 335.964 336.67C336.222 339.449 336.122 342.245 335.602 344.967ZM337.564 349.591C337.232 348.906 336.847 348.255 336.423 347.636C337.087 345.304 337.426 342.903 337.489 340.49C338.198 341.828 339.035 343.078 339.983 344.232C339.862 346.214 339.827 348.204 339.825 350.181C339.823 353.551 339.919 356.938 339.849 360.313C339.782 359.389 339.7 358.468 339.601 357.55C339.306 354.801 338.763 352.062 337.564 349.591ZM369.378 393.586C369.289 403.244 369.005 412.912 368.404 422.55C367.835 431.671 366.787 440.833 363.902 449.48C363.862 449.599 363.85 449.71 363.861 449.81C363.758 449.737 363.631 449.692 363.476 449.692H318.165C318.042 449.363 317.738 449.105 317.4 449.166C314.594 440.611 313.562 431.56 313 422.55C312.399 412.912 312.115 403.244 312.026 393.586C311.977 388.301 311.999 383.015 312.089 377.731C312.126 377.737 312.165 377.741 312.206 377.741H369.199C369.24 377.741 369.278 377.737 369.316 377.731C369.405 383.015 369.427 388.301 369.378 393.586Z" fill="#2758DA"/>
<path d="M539.876 243.891H418.541V151.057H539.876V243.891ZM419.95 242.376H538.467V152.571H419.95V242.376Z" fill="#2758DA"/>
<path d="M529.244 233.411H429.173V161.537H529.244V233.411ZM430.582 231.896H527.835V163.051H430.582V231.896Z" fill="#2758DA"/>
<path d="M512.625 180.308H445.792C444.885 180.308 444.884 181.823 445.792 181.823H512.625C513.532 181.823 513.533 180.308 512.625 180.308Z" fill="#2758DA"/>
<path d="M512.625 186.183H445.792C444.885 186.183 444.884 187.697 445.792 187.697H512.625C513.532 187.697 513.533 186.183 512.625 186.183Z" fill="#2758DA"/>
<path d="M512.625 192.057H445.792C444.885 192.057 444.884 193.571 445.792 193.571H512.625C513.532 193.571 513.533 192.057 512.625 192.057Z" fill="#2758DA"/>
<path d="M512.625 197.93H445.792C444.885 197.93 444.884 199.445 445.792 199.445H512.625C513.532 199.445 513.533 197.93 512.625 197.93Z" fill="#2758DA"/>
<path d="M503.387 213.124H455.027C454.371 213.124 454.371 214.639 455.027 214.639H503.387C504.043 214.639 504.045 213.124 503.387 213.124Z" fill="#2758DA"/>
<path d="M228.213 243.891H106.878V151.057H228.213V243.891ZM108.287 242.376H226.804V152.571H108.287V242.376Z" fill="#2758DA"/>
<path d="M217.581 233.411H117.51V161.537H217.581V233.411ZM118.919 231.896H216.172V163.051H118.919V231.896Z" fill="#2758DA"/>
<path d="M200.962 180.308H134.129C133.222 180.308 133.221 181.823 134.129 181.823H200.962C201.869 181.823 201.87 180.308 200.962 180.308Z" fill="#2758DA"/>
<path d="M200.962 186.183H134.129C133.222 186.183 133.221 187.697 134.129 187.697H200.962C201.869 187.697 201.87 186.183 200.962 186.183Z" fill="#2758DA"/>
<path d="M200.962 192.057H134.129C133.222 192.057 133.221 193.571 134.129 193.571H200.962C201.869 193.571 201.87 192.057 200.962 192.057Z" fill="#2758DA"/>
<path d="M200.962 197.93H134.129C133.222 197.93 133.221 199.445 134.129 199.445H200.962C201.869 199.445 201.87 197.93 200.962 197.93Z" fill="#2758DA"/>
<path d="M191.725 213.124H143.365C142.709 213.124 142.709 214.639 143.365 214.639H191.725C192.381 214.639 192.383 213.124 191.725 213.124Z" fill="#2758DA"/>
<path d="M389.122 151.057H257.018V266.4H389.122V151.057Z" fill="#2758DA"/>
<path d="M373.152 170.809H272.988V246.649H373.152V170.809Z" fill="#011140"/>
<path d="M323.07 181.428C294.2 181.428 280.766 192.473 280.766 192.473L297.918 235.533C307.696 231.691 323.07 230.251 323.07 230.251C323.07 230.251 338.443 231.691 348.222 235.533L365.374 192.473C365.374 192.473 351.939 181.428 323.07 181.428Z" fill="#2758DA"/>
<path d="M347.993 193.792C346.04 192.114 343.546 191.236 341.05 191.652C338.643 192.054 336.431 193.702 335.339 196.054C335.293 196.155 335.263 196.254 335.25 196.351C332.635 197.046 330.762 199.436 330.099 202.166C329.968 202.12 329.82 202.106 329.658 202.136C328.686 202.318 327.702 202.51 326.72 202.728C326.73 202.607 326.713 202.476 326.662 202.333C325.924 200.237 325.01 197.648 326.17 195.539C326.739 194.504 325.242 193.566 324.674 194.598C324.622 194.691 324.575 194.784 324.53 194.877C324.38 194.878 324.23 194.883 324.081 194.891C324.29 193.875 324.282 192.832 324.042 191.771C323.777 190.607 322.106 191.099 322.37 192.266C322.556 193.083 322.558 193.913 322.361 194.707C322.154 193.801 321.947 192.895 321.741 191.989C321.475 190.825 319.803 191.318 320.07 192.484C320.241 193.237 320.413 193.988 320.584 194.741C320.481 194.587 320.378 194.433 320.27 194.281C319.83 193.659 319.256 192.981 318.446 193.158C317.735 193.313 317.367 194.076 317.366 194.804C317.366 195.598 317.767 196.266 318.202 196.874C319.104 198.134 319.473 199.453 319.762 200.997C319.994 202.244 320.225 203.493 320.722 204.641C319.245 205.324 317.85 206.189 316.598 207.322C316.171 206.157 315.744 204.993 315.318 203.828C314.797 202.408 314.41 200.472 313.274 199.458C312.305 198.592 311.006 198.536 309.811 198.711C308.315 198.931 306.838 199.389 305.369 199.754C304.624 199.939 303.83 200.24 303.065 200.286C302.425 200.324 302.238 199.979 301.994 199.416C301.575 198.456 301.212 197.384 300.13 197.129C298.757 196.805 297.645 198.206 297.602 199.58C297.551 201.194 298.454 202.919 299.001 204.384C299.522 205.779 299.948 207.885 301.526 208.274C302.312 208.467 303.231 208.221 304.002 208.048C304.89 207.85 305.752 207.562 306.596 207.208C306.718 207.157 306.819 207.085 306.902 207.001C306.994 208.181 307.162 209.35 307.402 210.499C306.882 210.89 306.362 211.282 305.842 211.673C305.743 211.747 305.405 212.07 305.238 212.141C305.267 212.107 305.106 212.022 305.026 211.937C304.25 211.119 303.44 210.361 302.514 209.743C301.682 209.189 300.669 208.856 299.866 209.671C299.098 210.452 299.099 211.623 299.468 212.615C300.212 214.618 301.607 216.84 303.236 218.13C305.065 219.578 307.23 218.455 308.875 217.261C309.003 217.168 309.095 217.056 309.159 216.935C309.325 217.027 309.513 217.055 309.704 217.021C310.949 219.42 312.67 221.666 314.958 222.952C317.569 224.419 320.637 224.459 323.483 223.948C326.045 223.488 328.552 222.444 330.719 220.904C333.198 219.141 335.261 216.723 336.484 213.797C336.605 213.508 336.586 213.228 336.487 212.995C337.25 213.244 338.036 213.398 338.817 213.445C343.363 213.72 347.95 210.671 350.304 206.584C352.699 202.421 351.484 196.792 347.993 193.792Z" fill="#FEFEFE"/>
<path d="M266.202 163.54C268.272 163.54 269.95 161.736 269.95 159.511C269.95 157.286 268.272 155.482 266.202 155.482C264.132 155.482 262.454 157.286 262.454 159.511C262.454 161.736 264.132 163.54 266.202 163.54Z" fill="#FEFEFE"/>
<path d="M383.552 159.511C383.552 161.736 381.874 163.54 379.804 163.54C377.734 163.54 376.056 161.736 376.056 159.511C376.056 157.286 377.733 155.482 379.804 155.482C381.874 155.483 383.552 157.286 383.552 159.511Z" fill="#FEFEFE"/>
<path d="M266.202 261.984C268.272 261.984 269.95 260.18 269.95 257.955C269.95 255.73 268.272 253.926 266.202 253.926C264.132 253.926 262.454 255.73 262.454 257.955C262.454 260.18 264.132 261.984 266.202 261.984Z" fill="#FEFEFE"/>
<path d="M383.552 257.955C383.552 260.18 381.874 261.984 379.804 261.984C377.734 261.984 376.056 260.181 376.056 257.955C376.056 255.73 377.733 253.926 379.804 253.926C381.874 253.927 383.552 255.73 383.552 257.955Z" fill="#FEFEFE"/>
<path d="M366.687 240.085H357.317C356.411 240.085 356.409 241.6 357.317 241.6H366.687C367.593 241.6 367.595 240.085 366.687 240.085Z" fill="#FEFEFE"/>
<path d="M366.219 237.063H357.552C356.646 237.063 356.644 238.577 357.552 238.577H366.219C367.125 238.577 367.127 237.063 366.219 237.063Z" fill="#FEFEFE"/>
<mask id="mask0_53_4" style="mask-type:luminance" maskUnits="userSpaceOnUse" x="55" y="127" width="520" height="357">
<path d="M575 127.96H55V484H575V127.96Z" fill="white"/>
</mask>
<g mask="url(#mask0_53_4)">
<path d="M387.108 433.947C386.721 433.331 386.072 432.965 385.499 432.582C384.756 432.087 384.014 431.591 383.271 431.095C381.711 430.055 380.151 429.014 378.591 427.973C378.335 427.802 378.087 427.809 377.884 427.918C377.552 427.901 377.206 428.073 377.064 428.499C376.078 431.452 376.161 434.617 376.259 437.707C376.363 441.011 376.479 444.316 376.738 447.611C377.22 453.766 378.2 459.927 380.434 465.65C381.629 468.712 383.159 471.574 385.082 474.175C385.477 474.71 386.246 474.349 386.41 473.799C387.328 470.716 387.134 467.332 387.186 464.137C387.242 460.696 387.294 457.255 387.34 453.813C387.387 450.371 387.43 446.93 387.467 443.488C387.486 441.79 387.503 440.094 387.52 438.396C387.528 437.594 387.543 436.793 387.543 435.991C387.543 435.272 387.494 434.559 387.108 433.947Z" fill="#E2AFA3"/>
<path d="M424.573 222.316C424.573 222.316 402.858 234.107 397.163 238.642C391.467 243.177 380.288 247.258 377.967 264.265C375.647 281.271 382.397 321.932 382.397 325.184C382.397 328.435 376.913 425.259 376.28 428.887L385.038 435.192L387.856 560.097H537.411C537.411 560.097 531.101 462.572 523.027 411.521C523.027 411.521 541.903 406.757 543.753 388.868C545.603 370.979 531.03 299.714 527.615 284.644C524.2 269.574 498.136 228.057 459.775 220.368L419.667 289.158C419.667 289.158 419.539 238.966 424.573 222.316Z" fill="#FEFEFE"/>
<path d="M419.668 289.158L440.98 252.606C434.101 251.659 427.372 249.211 420.879 246.136C419.265 266.423 419.668 289.158 419.668 289.158Z" fill="#0B8CD5"/>
<path d="M465.577 185.627L445.47 155.523L421.684 139.603C413.986 144.366 406.14 161.053 409.76 183.483C413.379 205.915 428.62 211.431 428.62 211.431V220.369L424.574 222.316C422.771 228.159 421.617 236.894 420.881 246.136C427.373 249.211 434.103 251.659 440.982 252.606L459.778 220.369L448.623 217.37L448.814 209.588C463.102 201.396 462.067 197.814 462.067 197.814L465.577 185.627Z" fill="#E2AFA3"/>
<path d="M416.544 191.455C419.958 191.455 422.726 188.479 422.726 184.809C422.726 181.139 419.958 178.164 416.544 178.164C413.13 178.164 410.362 181.139 410.362 184.809C410.362 188.479 413.13 191.455 416.544 191.455Z" fill="#0B8CD5"/>
<path d="M442.848 193.739C445.96 193.739 448.483 190.764 448.483 187.094C448.483 183.425 445.96 180.45 442.848 180.45C439.736 180.45 437.213 183.425 437.213 187.094C437.213 190.764 439.736 193.739 442.848 193.739Z" fill="#0B8CD5"/>
<path d="M484.96 191.717C487.452 188.507 485.164 184.145 483.053 181.461C481.928 180.031 480.525 178.926 478.88 178.294C477.295 177.685 475.591 177.53 473.916 177.419C475.602 171.219 474.245 164.434 472.145 158.54C470.246 153.21 467.466 148.248 463.876 144.034C460.296 139.831 455.904 136.432 450.98 134.298C445.885 132.09 440.22 131.258 434.764 131.967C431.676 132.367 428.675 133.234 425.84 134.614C424.458 135.286 423.092 136.07 421.857 137.022C421.02 137.668 420.228 138.438 419.731 139.395C416.713 140.132 414.135 142.491 412.509 145.317C410.11 149.488 409.744 154.592 409.396 159.359C409.321 160.382 410.663 160.428 410.956 159.586C412.948 153.87 417.652 149.689 419.832 144.13C420.128 148.518 421.82 152.731 424.066 156.398C425.441 158.644 427.013 160.973 428.912 162.742C430.966 164.656 433.366 165.19 436.011 165.395C439.018 165.627 442.027 165.834 445.036 166.05C447.224 168.353 449.518 170.817 450.298 174.104C450.94 176.808 450.157 180.252 447.48 181.306C446.889 181.538 446.735 182.218 447.13 182.733C447.234 182.868 447.337 183.004 447.44 183.139C447.346 185.642 450.175 188.113 452.277 188.369C454.316 188.618 455.73 187.351 456.747 185.695C456.695 186.622 456.557 187.538 456.26 188.421C455.986 189.23 455.561 189.998 454.987 190.602C454.364 191.256 453.568 191.556 452.811 191.984C452.252 192.3 452.342 193.12 452.811 193.458C454.559 194.721 456.689 194.315 458.59 193.656C458.988 195.022 459.598 196.307 460.409 197.448C460.651 197.789 461.117 198.422 461.644 198.914C460.694 200.444 460.743 202.666 460.994 204.395C461.288 206.426 462.164 208.4 463.523 209.857C466.116 212.641 470.345 213.49 473.501 211.301C474.689 210.477 475.66 209.313 476.256 207.948C477.959 207.796 479.284 206.388 479.999 204.673C480.198 204.195 480.279 203.698 480.703 203.403C481.126 203.108 481.553 202.848 481.951 202.508C482.638 201.923 483.225 201.227 483.728 200.455C484.763 198.863 485.353 196.905 485.383 194.963C485.4 193.859 485.202 192.813 484.887 191.8C484.912 191.775 484.936 191.748 484.96 191.717Z" fill="#011140"/>
<path d="M506.652 318.693L438.579 303.205C437.652 302.994 436.734 303.636 436.537 304.633L419.314 392.112C419.118 393.109 419.715 394.096 420.642 394.308L457.359 402.662C456.651 393.611 456.869 384.41 460.88 376.048C461.939 373.913 462.602 371.635 463.661 369.5C464.72 367.792 466.442 367.649 468.163 367.649C478.493 367.309 488.906 367.508 499.137 365.809L507.981 320.888C508.177 319.891 507.578 318.904 506.652 318.693Z" fill="#011140"/>
<path d="M461.924 367.412C461.902 367.251 461.827 367.089 461.681 366.945C458.607 363.921 455.177 361.317 451.473 359.261C449.661 358.256 447.721 357.191 445.621 357.546C443.67 357.875 442.066 359.24 440.575 360.538C440.549 360.56 440.525 360.583 440.504 360.606C438.798 361.525 436.69 361.028 434.894 360.72C432.727 360.348 430.574 359.88 428.443 359.316C428.197 359.251 427.951 359.186 427.706 359.118C427.363 359.02 427.505 359.138 427.478 358.866C427.43 358.367 427.504 357.887 427.369 357.391C427.127 356.493 426.387 355.691 425.464 355.729C424.459 355.771 423.791 356.86 423.169 357.574C422.447 358.404 421.686 359.21 421.009 360.082C420.388 360.881 419.845 361.828 419.874 362.909C419.883 363.228 419.936 363.542 420.032 363.835C417.917 365.541 417.294 368.647 418.657 371.166C417.717 372.061 417.079 373.287 416.877 374.637C416.753 375.466 416.765 376.31 416.963 377.126C417.053 377.496 417.187 377.86 417.346 378.201C417.525 378.586 417.909 379.016 417.913 379.465C417.915 379.868 417.656 380.309 417.556 380.692C417.429 381.178 417.359 381.686 417.332 382.188C417.281 383.117 417.416 384.077 417.669 384.965C418.189 386.776 419.183 388.42 420.409 389.772C425.541 395.429 433.369 396.518 440.06 398.81C442.354 399.596 444.645 400.441 447.025 400.875C447.057 400.881 447.089 400.885 447.121 400.891C448.753 401.894 450.679 402.219 452.515 401.876C453.253 401.923 453.993 401.924 454.733 401.879C455.018 402.53 456.181 402.387 456.262 401.463C457.032 392.81 457.821 384.078 460.169 375.722C460.841 373.332 461.641 370.984 462.597 368.708C462.864 368.075 462.402 367.492 461.924 367.412Z" fill="#E2AFA3"/>
<path d="M492.649 313.386C492.021 311.96 491.08 310.691 489.918 309.729C488.436 308.502 486.66 307.99 484.848 307.619C483.604 307.365 482.36 307.114 481.116 306.865C481.36 305.073 481.296 303.241 480.627 301.546C479.899 299.704 478.468 298.097 476.599 297.662C474.843 297.254 472.955 297.799 471.621 299.093C470.18 300.492 469.803 302.584 469.648 304.581C468.028 304.246 466.406 303.907 464.779 303.628C462.89 303.304 460.87 303.157 459.127 304.167C455.983 305.988 455.707 310.294 455.848 313.75C455.288 314.082 455.194 315.136 455.98 315.32C464.789 317.375 473.599 319.43 482.408 321.486C484.943 322.077 487.479 322.669 490.014 323.26C490.026 323.263 490.036 323.263 490.048 323.265C490.536 323.39 491.024 323.515 491.511 323.639C492.089 323.787 492.474 323.292 492.5 322.802C492.533 322.761 492.563 322.718 492.587 322.671C494.045 319.785 493.941 316.318 492.649 313.386Z" fill="#0B8CD5"/>
<path d="M439.007 175.139C439.241 174.088 439.835 172.859 440.73 172.302C441.699 171.7 442.977 171.798 443.903 172.45C445.687 173.707 446.073 176.524 444.399 178.08C444.113 178.346 443.799 178.544 443.471 178.682C443.341 178.758 443.205 178.827 443.063 178.885C440.836 179.787 438.446 177.657 439.007 175.139Z" fill="#0B0304"/>
<path d="M416.628 172.763C416.862 171.712 417.457 170.484 418.351 169.927C419.321 169.324 420.598 169.422 421.524 170.074C423.309 171.332 423.694 174.149 422.021 175.705C421.735 175.97 421.421 176.169 421.093 176.307C420.963 176.383 420.828 176.452 420.684 176.51C418.458 177.412 416.066 175.281 416.628 172.763Z" fill="#0B0304"/>
<path d="M428.944 176.883C429.255 175.104 429.463 173.314 429.561 171.507C429.62 170.417 431.21 170.363 431.15 171.463C431.041 173.463 430.815 175.452 430.466 177.42C430.391 177.845 430.106 178.039 429.8 178.052C429.666 178.406 429.343 178.685 428.896 178.597C426.231 178.071 424.004 180.681 424.356 183.464C424.736 186.487 427.638 188.192 430.284 187.465C431.273 187.193 431.738 188.827 430.746 189.1C427.064 190.111 423.244 187.67 422.769 183.517C422.328 179.682 425.447 176.428 428.944 176.883Z" fill="#0B0304"/>
<path d="M425.767 195.142C429.817 196.986 434.381 194.779 436.025 190.482C436.413 189.467 437.804 190.297 437.418 191.306C435.419 196.53 429.779 198.815 425.001 196.64C424.061 196.21 424.832 194.716 425.767 195.142Z" fill="#0B0304"/>
<path d="M435.066 162.876C428.939 159.219 424.391 152.842 422.548 145.587C422.028 143.537 421.735 141.442 421.672 139.32C421.64 138.223 420.051 138.218 420.083 139.32C420.316 147.282 423.688 155.005 429.144 160.383C430.699 161.915 432.419 163.252 434.263 164.353C435.159 164.885 435.961 163.41 435.066 162.876Z" fill="#0B0304"/>
<path d="M455.157 176.988C454.977 172.934 452.727 169.279 450.076 166.544C444.522 160.812 436.687 158.392 431.477 152.225C428.635 148.861 426.732 144.672 425.928 140.218C425.734 139.14 424.202 139.597 424.396 140.673C425.066 144.382 426.484 147.94 428.536 151.01C430.682 154.218 433.454 156.716 436.532 158.838C442.323 162.83 449.671 166.043 452.673 173.224C453.518 175.245 453.97 177.72 453.172 179.841C452.506 181.615 450.902 182.962 449.084 182.845C448.062 182.78 448.066 184.488 449.084 184.553C452.906 184.8 455.322 180.712 455.157 176.988Z" fill="#0B0304"/>
<path d="M458.515 178.777C458.292 177.704 456.76 178.158 456.983 179.231C457.358 181.041 456.627 182.804 455.622 184.229C454.783 185.418 453.17 187.49 451.588 187.035C450.599 186.75 450.177 188.398 451.166 188.682C453.44 189.336 455.458 187.2 456.741 185.445C458.137 183.537 459.021 181.221 458.515 178.777Z" fill="#0B0304"/>
<path d="M480.826 183.884C478.749 182.582 476.314 181.976 473.918 182.169C474.196 181.036 474.413 179.884 474.565 178.72C474.869 176.381 474.923 174.027 474.69 171.678C474.583 170.596 472.992 170.584 473.101 171.678C473.875 179.487 471.452 187.512 466.636 193.412C465.282 195.071 463.753 196.556 462.066 197.816C461.232 198.439 462.025 199.92 462.868 199.291C464.611 197.99 466.197 196.469 467.605 194.78C468.636 200.292 472.556 204.449 476.824 207.403C477.686 208 478.484 206.522 477.626 205.928C473.51 203.079 469.804 199.094 469.03 193.684C469 193.478 468.921 193.329 468.814 193.228C469.186 192.716 469.543 192.193 469.883 191.656C471.357 196.536 475.004 200.409 479.182 202.777C480.086 203.29 480.89 201.816 479.984 201.303C475.719 198.885 472.076 194.876 471.036 189.686C472.036 187.826 472.853 185.854 473.472 183.809C473.579 183.867 473.71 183.895 473.864 183.881C475.867 183.709 477.874 184.118 479.652 185.136C481.209 186.028 483.258 187.615 483.268 189.72C483.274 190.819 484.863 190.822 484.858 189.72C484.843 187.108 482.776 185.106 480.826 183.884Z" fill="#0B0304"/>
<path d="M500.068 312.729C497.259 301.491 494.451 290.252 491.643 279.014C491.378 277.953 489.844 278.403 490.11 279.468C492.919 290.706 495.727 301.945 498.535 313.183C498.801 314.245 500.335 313.794 500.068 312.729Z" fill="#0B0304"/>
<path d="M527.045 366.882C519.021 364.961 510.767 364.957 502.591 365.188C494.204 365.426 485.821 365.838 477.449 366.421C473.076 366.725 468.705 367.08 464.339 367.477C464.305 367.426 464.264 367.377 464.214 367.33C460.477 363.755 456.289 360.453 451.773 358.105C449.58 356.964 447.239 356.306 444.82 356.942C442.508 357.55 440.517 359.077 438.629 360.567C438.532 360.643 438.457 360.732 438.404 360.827C438.089 360.762 437.776 360.696 437.462 360.628C434.451 359.976 431.44 359.325 428.429 358.673C427.43 358.457 427.003 360.103 428.006 360.32L437.039 362.275C439.97 362.909 442.965 363.414 445.797 364.473C446.765 364.835 447.181 363.185 446.219 362.826C444.342 362.124 442.393 361.666 440.439 361.251C441.913 360.117 443.476 359.051 445.241 358.589C447.475 358.005 449.619 358.812 451.591 359.916C455.494 362.098 459.142 364.85 462.465 367.949C462.279 368.231 462.248 368.621 462.377 368.91C459.474 377.768 456.593 386.776 455.884 396.198C455.761 397.821 455.713 399.448 455.739 401.074C455.698 401.074 455.656 401.078 455.613 401.085C449.013 402.219 442.49 399.776 436.396 397.321C433.447 396.134 430.484 394.998 427.527 393.835C424.768 392.751 421.891 391.425 419.87 389.048C418.057 386.915 416.822 383.711 417.702 380.861C417.806 381.005 417.913 381.147 418.024 381.283C419.292 382.845 420.968 383.978 422.732 384.777C423.777 385.251 424.856 385.621 425.954 385.925C426.465 386.066 426.98 386.194 427.495 386.315C427.773 386.381 428.051 386.443 428.329 386.506C428.465 386.536 428.6 386.566 428.735 386.596C429.172 387.214 430.125 387.294 430.373 386.333C430.73 384.943 428.814 384.877 428.037 384.696C425.793 384.172 423.533 383.527 421.556 382.229C419.897 381.141 418.373 379.543 417.757 377.515C417.205 375.697 417.344 373.582 418.445 372.043C418.805 372.618 419.223 373.15 419.689 373.619C421.225 375.16 423.133 376.138 425.093 376.89C427.325 377.747 429.618 378.432 431.882 379.18C432.862 379.504 433.281 377.855 432.305 377.533C430.349 376.886 428.381 376.267 426.437 375.582C424.677 374.961 422.907 374.216 421.431 372.982C419.401 371.284 417.853 368.082 419.049 365.511C419.446 365.512 419.824 365.24 419.785 364.69C419.785 364.675 419.783 364.659 419.782 364.643C420.609 366.333 422.069 367.608 423.568 368.582C425.308 369.714 427.253 370.466 429.221 370.989C431.105 371.49 433.027 371.79 434.951 372.05C435.569 372.694 436.416 372.498 436.902 371.794C437.305 371.212 436.738 370.576 436.216 370.508C431.837 369.94 427.163 369.301 423.475 366.476C421.819 365.207 420.069 363.064 421.01 360.74C421.939 358.444 424.383 357.562 426.412 356.82C427.374 356.468 426.961 354.817 425.989 355.173C424.055 355.881 422 356.652 420.605 358.343C420.118 358.932 419.742 359.592 419.498 360.29C418.993 352.091 418.684 343.879 418.58 335.663C418.569 334.753 418.561 333.843 418.555 332.932C418.873 333.042 419.25 332.972 419.49 332.597C425.541 323.147 431.713 313.789 438.008 304.526C444.338 295.21 450.79 285.99 457.365 276.873C461.053 271.76 464.779 266.679 468.541 261.629C468.92 261.12 468.796 260.421 468.19 260.201C462.237 258.04 456.505 255.246 451.064 251.87C458.379 247.797 465.641 243.615 472.846 239.321C476.112 237.376 479.365 235.408 482.607 233.418C483.495 232.873 482.696 231.396 481.805 231.943C470.365 238.964 458.778 245.711 447.056 252.172C444.248 253.72 441.431 255.25 438.607 256.766C442.505 250.022 446.526 243.36 450.669 236.787C453.751 231.895 456.901 227.053 460.114 222.259C460.713 221.365 459.335 220.512 458.742 221.396C453.021 229.93 447.504 238.621 442.203 247.463C436.902 256.305 431.816 265.294 426.951 274.421C424.561 278.905 422.229 283.425 419.946 287.972C419.907 271.933 420.809 255.892 422.666 239.976C423.22 235.231 423.863 230.499 424.585 225.78C424.75 224.704 423.219 224.242 423.053 225.326C421.206 237.391 419.897 249.549 419.137 261.748C413.925 253.063 408.529 244.507 402.953 236.089C402.364 235.2 400.985 236.053 401.581 236.951C405.731 243.215 409.78 249.557 413.729 255.97C406.563 256.687 399.459 258.035 392.501 260.012C391.957 260.167 391.828 260.775 392.026 261.267C398.841 278.18 405.455 295.188 411.865 312.284C413.579 316.856 415.277 321.435 416.962 326.02C416.915 333.466 417.03 340.915 417.313 348.356C417.509 353.527 417.787 358.695 418.141 363.855C416.813 365.823 416.817 368.284 417.649 370.448C417.609 370.483 417.568 370.521 417.529 370.568C415.498 373.015 415.47 376.38 416.719 379.155C416.65 379.223 416.589 379.312 416.541 379.427C415.314 382.351 415.833 385.616 417.368 388.295C418.007 389.41 418.799 390.373 419.693 391.212C419.693 391.219 419.692 391.225 419.692 391.232C419.649 402.982 419.773 414.733 420.069 426.48C420.365 438.226 420.831 449.967 421.467 461.698C421.825 468.293 423.313 549.306 423.778 555.893C423.855 556.983 425.445 556.992 425.367 555.893C424.541 544.177 422.805 458.025 422.317 446.286C421.83 434.547 421.513 422.801 421.366 411.051C421.289 404.87 421.261 398.688 421.278 392.506C422.332 393.259 423.469 393.891 424.634 394.431C427.734 395.869 430.984 396.943 434.141 398.226C437.486 399.585 440.837 400.965 444.308 401.913C448.074 402.942 451.942 403.389 455.799 402.77C455.823 403.256 455.852 403.742 455.89 404.228C455.949 404.971 456.71 405.211 457.159 404.938C465.456 408.19 474.138 410.076 482.853 411.489C491.402 412.875 500.114 414.297 508.784 414.048C513.612 413.909 518.441 413.179 523.029 411.522C523.993 411.173 523.58 409.523 522.606 409.875C514.495 412.804 505.841 412.697 497.421 411.803C488.817 410.889 480.167 409.573 471.713 407.606C466.918 406.491 462.18 405.094 457.569 403.286C457.515 403.265 457.463 403.251 457.413 403.243C456.885 394.139 458.984 385.192 461.605 376.595C462.358 374.125 463.158 371.672 463.961 369.221C472.027 368.482 480.105 367.899 488.191 367.479C496.443 367.049 504.75 366.585 513.013 366.853C517.588 367 522.152 367.461 526.625 368.532C527.618 368.768 528.044 367.121 527.045 366.882ZM419.978 291.157C420.117 291.093 420.242 290.976 420.335 290.79C424.951 281.515 429.788 272.368 434.846 263.363C435.641 261.947 436.444 260.535 437.25 259.126C437.433 259.192 437.642 259.187 437.858 259.071C441.793 256.969 445.713 254.833 449.618 252.669C449.661 252.863 449.774 253.044 449.983 253.174C455.285 256.49 460.873 259.255 466.66 261.44C460.208 270.119 453.863 278.89 447.632 287.754C441.146 296.979 434.783 306.303 428.544 315.722C425.173 320.811 421.841 325.929 418.543 331.071C418.538 329.814 418.54 328.558 418.545 327.3C418.804 327.132 418.954 326.819 418.805 326.414C418.721 326.186 418.637 325.958 418.553 325.729C418.597 319.353 418.758 312.979 419.044 306.61C419.277 301.455 419.589 296.302 419.978 291.157ZM417.046 319.3C417.032 320.048 417.021 320.797 417.01 321.545C411.225 305.902 405.274 290.33 399.153 274.835C397.384 270.354 395.598 265.882 393.801 261.415C400.663 259.52 407.659 258.234 414.718 257.584C415.922 259.552 417.118 261.526 418.303 263.506C418.482 263.806 418.748 263.917 419.007 263.899C418.782 267.841 418.613 271.785 418.505 275.732C418.373 280.495 418.328 285.26 418.364 290.025C418.365 290.173 418.395 290.3 418.446 290.409C417.705 300.021 417.237 309.657 417.046 319.3Z" fill="#0B0304"/>
<path d="M387.852 286.4C387.943 285.305 386.353 285.311 386.264 286.4C384.676 305.688 384.31 325.062 384.32 344.417C384.329 363.775 384.587 383.132 384.755 402.489C384.849 413.391 384.944 424.292 385.038 435.193C385.048 436.291 386.636 436.295 386.627 435.193C386.458 415.67 386.289 396.147 386.12 376.623C385.952 357.338 385.703 338.046 386.186 318.765C386.457 307.962 386.967 297.165 387.852 286.4Z" fill="#0B0304"/>
</g>
<mask id="mask1_53_4" style="mask-type:luminance" maskUnits="userSpaceOnUse" x="55" y="127" width="520" height="357">
<path d="M575 127.96H55V484H575V127.96Z" fill="white"/>
</mask>
<g mask="url(#mask1_53_4)">
<path d="M220.299 484.313H123.587C123.587 484.313 85.4853 379.341 83.2989 357.854C81.1125 336.367 82.3621 271.571 83.2989 266.871C84.2357 262.172 85.1725 256.128 106.722 256.128C128.272 256.128 162.232 256.128 162.232 256.128L220.299 484.313Z" fill="#2758DA"/>
<path d="M153.137 497.282C146.774 482.812 141.066 468.025 135.711 453.094C130.358 438.164 125.351 423.093 120.36 408.019C115.486 393.298 110.508 378.527 107.621 363.176C107.164 360.748 106.769 358.312 106.436 355.867C106.518 355.905 106.613 355.926 106.721 355.926H134.829C135.735 355.926 135.737 354.412 134.829 354.412H106.722C106.53 354.412 106.38 354.48 106.27 354.586C105.634 349.569 105.265 344.518 105.19 339.441C105.07 331.211 105.568 322.987 106.034 314.777C106.966 298.386 108.016 282.002 109.182 265.629C109.328 263.582 109.476 261.535 109.626 259.489C109.697 258.517 108.287 258.523 108.217 259.489C107.01 276.018 105.922 292.557 104.953 309.104C104.006 325.298 102.867 341.5 105.258 357.617C107.572 373.217 112.337 388.234 117.234 403.077C122.225 418.207 127.226 433.337 132.522 448.349C137.794 463.289 143.374 478.111 149.575 492.636C150.347 494.445 151.13 496.247 151.921 498.046C152.308 498.926 153.522 498.159 153.137 497.282Z" fill="#FEFEFE"/>
<path d="M188.728 272.347C188.728 272.347 199.222 294.262 216.19 292.821C233.158 291.381 224.898 271.2 224.898 271.2C224.898 271.2 245.326 270.74 256.769 284.181C268.211 297.622 277.222 330.585 277.222 330.585L278.418 332.479C278.418 332.479 258.867 336.8 244.45 345.726C230.032 354.652 209.341 373.582 204.234 385.211L232.375 369.342C232.375 369.342 233.167 390.609 248.412 400.523L234.454 419.397C234.454 419.397 204.396 448.417 199.243 451.271C194.09 454.125 174.181 460.42 161.063 448.082C147.946 435.744 139.514 400.24 136.938 371.661C134.361 343.082 136.403 287.475 188.728 272.347Z" fill="#0B8CD5"/>
<path d="M188.728 272.347L194.343 268.814L194.108 248.066C194.108 248.066 196.819 249.621 196.728 239.581C196.728 239.581 192.382 239.513 190.684 236.231C188.985 232.95 189.347 231.016 190.538 228.67C191.729 226.324 194.658 224.87 197.861 226.849C197.861 226.849 198.957 227.293 201.872 224.98C204.787 222.667 207.545 218.214 207.545 218.214C207.545 218.214 205.203 214.32 204.734 211.527C204.265 208.734 204.265 206.663 204.37 206.103C204.474 205.543 205.567 202.354 208.899 204.201L210.562 201.679C210.562 201.679 211.241 199.724 213.063 200.117L214.151 197.319L230.717 190.491C230.717 190.491 244.099 208.748 242.693 221.337C242.693 221.337 248.473 232.325 239.765 249.916C234.655 260.239 220.168 262.002 220.168 262.002V268.8L224.898 271.199C224.898 271.199 234.534 287.014 219.309 293.141C204.083 299.269 189.668 278.678 188.728 272.347Z" fill="#5B4A36"/>
<path d="M241.713 203.969C241.709 203.452 241.663 202.935 241.591 202.423C241.319 200.498 240.542 198.675 239.537 197.068C238.485 195.387 237.191 193.89 235.785 192.546C234.33 191.155 232.749 189.843 230.99 188.926C229.144 187.964 227.103 187.461 225.093 187.979C222.599 184.612 219.285 182.174 215.467 180.83C211.738 179.519 207.708 179.098 203.804 179.422C196.177 180.053 188.821 183.471 183.093 188.906C177.231 194.469 173.272 202.157 171.48 210.299C169.658 218.574 169.867 227.758 172.869 235.694C173.823 238.216 175.075 240.625 176.656 242.748C176.472 242.976 176.314 243.229 176.197 243.502C176.17 243.564 176.15 243.627 176.136 243.692C171.277 247.086 166.449 250.771 163.083 255.937C161.485 258.389 160.256 261.162 159.677 264.101C159.048 267.29 159.155 270.569 159.693 273.764C160.321 277.493 161.533 281.079 162.889 284.566C163.107 285.125 163.62 285.275 164.067 284.9C169.436 280.404 176.025 278.143 182.391 275.849C183.986 275.275 185.58 274.696 187.161 274.076C188.621 273.504 190.095 272.916 191.446 272.083C192.7 271.309 193.858 270.298 194.632 268.969C195.565 267.368 195.752 265.454 195.781 263.607C195.853 259.157 195.351 254.693 194.352 250.376C194.497 250.212 194.569 249.979 194.494 249.693C194.269 248.837 194.896 248.304 195.424 247.779C196.005 247.203 196.492 246.592 196.81 245.806C197.406 244.335 197.413 242.704 197.338 241.125C197.381 241.113 197.424 241.102 197.467 241.088C198.338 240.823 197.968 239.362 197.093 239.628C193.709 240.655 190.616 237.951 189.878 234.476C189.181 231.19 190.646 227.487 193.534 226.041C194.151 225.733 194.818 225.536 195.497 225.455C195.55 225.586 195.648 225.705 195.803 225.792C196.164 225.995 196.548 226.098 196.932 226.102C196.861 226.454 196.996 226.835 197.419 226.931C200.396 227.603 203.244 226.18 205.405 224.039C206.457 222.996 207.425 221.786 208.243 220.523C208.571 220.017 208.837 219.473 209.003 218.911C209.285 218.851 209.565 218.786 209.845 218.718C210.305 218.605 210.472 218.017 210.266 217.606C208.845 214.76 207.781 211.58 207.41 208.362C207.328 207.647 207.304 206.872 207.7 206.252C208.043 205.714 208.59 205.351 209.075 204.979C209.905 204.343 210.698 203.57 210.976 202.532C212.263 202.538 213.529 202.026 214.414 200.968C215.365 199.83 215.755 198.268 215.512 196.781C217.689 196.84 219.63 199.689 220.522 201.567C221.877 204.417 222.276 207.764 221.638 210.888C221.523 211.454 221.966 211.964 222.505 211.819C224.495 211.286 226.525 210.992 228.577 210.965C229.066 210.958 229.556 210.966 230.045 210.989C230.493 211.009 230.977 211.108 231.421 211.006C232.325 210.796 232.453 209.921 232.511 209.07C232.769 205.292 232.208 201.428 230.924 197.903C230.444 196.584 229.869 195.313 229.201 194.098C233.683 196.301 237.044 201.053 237.601 206.358C237.662 206.942 238.148 207.283 238.661 207.012C239.139 206.759 239.617 206.506 240.095 206.254C240.526 206.026 241.325 205.794 241.577 205.332C241.768 204.976 241.715 204.369 241.713 203.969Z" fill="#011140"/>
<path d="M232.502 370.939L205.586 384.45C205.586 384.45 218.403 349.597 279.304 331.868L291.076 338.067C291.076 338.067 307.912 343.655 312.94 348.02C317.967 352.386 320.359 356.335 322.837 364.442C325.316 372.549 327.9 389.491 322.837 384.45L327.316 402.076C327.316 402.076 326.948 403.98 319.73 408.543C312.512 413.106 282.838 425.19 258.792 423.025C258.792 423.025 246.856 423.722 234.117 418.745L248.636 401.264C248.635 401.263 233.557 393.06 232.502 370.939Z" fill="#5B4A36"/>
<path d="M330.314 400.076L336.352 411.092C336.352 411.092 394.609 441.551 428.719 482.313H223.298C223.298 482.313 207.969 472.164 202.242 449.271C202.242 449.271 218.933 436.254 227.255 427.655C235.577 419.056 237.453 416.874 237.453 416.874C237.453 416.874 290.911 434.561 330.314 400.076Z" fill="#0D0D0D"/>
<path d="M220.592 221.809C220.363 220.883 219.809 219.81 219.004 219.338C218.132 218.828 217.002 218.947 216.196 219.547C214.641 220.705 214.359 223.212 215.876 224.549C216.136 224.778 216.418 224.946 216.712 225.06C216.828 225.125 216.95 225.182 217.078 225.229C219.07 225.973 221.143 224.027 220.592 221.809Z" fill="#0B0304"/>
<path d="M240.373 219.151C240.143 218.226 239.59 217.151 238.785 216.68C237.913 216.17 236.782 216.289 235.977 216.889C234.422 218.048 234.14 220.554 235.658 221.891C235.917 222.12 236.199 222.287 236.493 222.402C236.61 222.466 236.731 222.524 236.859 222.571C238.851 223.315 240.924 221.369 240.373 219.151Z" fill="#0B0304"/>
<path d="M229.545 223.105C229.232 221.537 229.01 219.955 228.884 218.356C228.808 217.392 227.398 217.384 227.475 218.356C227.614 220.126 227.857 221.883 228.208 223.619C228.284 223.994 228.541 224.158 228.812 224.161C228.939 224.472 229.231 224.711 229.624 224.622C231.976 224.091 234.004 226.348 233.752 228.824C233.48 231.513 230.944 233.094 228.585 232.516C227.703 232.3 227.326 233.76 228.211 233.977C231.496 234.781 234.828 232.524 235.16 228.832C235.468 225.423 232.635 222.616 229.545 223.105Z" fill="#0B0304"/>
<path d="M232.752 239.208C229.203 240.942 225.111 239.1 223.561 235.332C223.196 234.443 221.981 235.212 222.344 236.096C224.228 240.677 229.275 242.562 233.462 240.516C234.287 240.113 233.572 238.807 232.752 239.208Z" fill="#0B0304"/>
<path d="M199.078 236.594C198.392 238.638 196.168 239.238 194.395 238.639C192.567 238.022 191.151 236.317 190.61 234.366C190.269 233.135 190.296 231.826 190.646 230.618C190.784 230.702 190.956 230.732 191.153 230.675C193.074 230.119 195.08 230.358 196.831 231.297C195.513 232.248 195.256 234.46 196.63 235.653C197.329 236.261 198.332 235.196 197.626 234.583C196.764 233.834 197.052 232.559 198.152 232.349C198.533 232.275 198.682 231.967 198.658 231.651C198.851 231.323 198.85 230.842 198.465 230.564C196.368 229.051 193.764 228.531 191.305 229.081C191.407 228.908 191.513 228.737 191.63 228.573C192.736 227.023 195.062 225.573 196.707 227.117C197.387 227.755 198.388 226.689 197.703 226.046C196.116 224.556 193.873 224.73 192.192 225.958C190.549 227.157 189.392 229.104 189.066 231.211C188.407 235.467 191.204 239.976 195.331 240.376C197.536 240.59 199.677 239.26 200.436 236.999C200.745 236.078 199.384 235.683 199.078 236.594Z" fill="#0B0304"/>
<path d="M224.707 199.555C223.537 196.627 221.157 194.134 218.022 194.237C216.419 194.289 214.972 195.012 213.999 196.391C213.451 197.168 214.675 197.923 215.216 197.156C216.059 195.962 217.596 195.585 218.918 195.804C220.511 196.067 221.8 197.208 222.662 198.63C224.745 202.07 224.904 206.727 223.932 210.59C223.695 211.531 225.054 211.934 225.291 210.992C226.227 207.267 226.133 203.127 224.707 199.555Z" fill="#0B0304"/>
<path d="M229.373 200.477C228.923 198.796 228.23 197.175 227.303 195.736C226.369 194.285 225.248 192.96 223.677 192.334C222.826 191.996 222.458 193.459 223.303 193.795C224.659 194.334 225.638 195.718 226.388 196.986C227.168 198.305 227.743 199.743 228.111 201.254C228.851 204.285 228.707 207.495 227.689 210.43C227.372 211.344 228.733 211.739 229.047 210.832C230.19 207.537 230.276 203.853 229.373 200.477Z" fill="#0B0304"/>
<path d="M238.079 204.563C237.511 199.71 234.571 195.334 230.361 193.397C229.537 193.017 228.818 194.321 229.65 194.705C233.368 196.416 236.161 200.218 236.67 204.563C236.782 205.517 238.192 205.529 238.079 204.563Z" fill="#0B0304"/>
<path d="M210.674 200.554C209.375 199.337 207.46 199.46 206.119 200.551C204.62 201.77 204.067 203.842 203.82 205.756C203.28 209.965 204.209 214.326 206.392 217.869C206.89 218.678 208.111 217.92 207.608 217.104C205.812 214.189 204.916 210.72 205.094 207.224C205.174 205.657 205.405 203.902 206.248 202.578C206.953 201.472 208.577 200.594 209.677 201.624C210.358 202.262 211.359 201.196 210.674 200.554Z" fill="#0B0304"/>
<path d="M203.572 218.334C202.1 215.542 200.58 212.675 200.074 209.469C199.648 206.776 200.088 203.752 201.848 201.684C202.46 200.966 201.466 199.893 200.852 200.614C198.862 202.951 198.258 206.206 198.636 209.286C199.072 212.839 200.737 216.028 202.356 219.098C202.802 219.946 204.02 219.184 203.572 218.334Z" fill="#0B0304"/>
<path d="M193.669 247.853C187.578 247.226 181.899 243.433 178.641 237.876C178.158 237.054 176.939 237.812 177.425 238.64C180.966 244.682 187.064 248.687 193.669 249.368C194.57 249.462 194.565 247.946 193.669 247.853Z" fill="#0B0304"/>
<path d="M195.852 207.17C188.948 209.012 182.802 213.578 178.624 219.75C177.441 221.498 176.433 223.375 175.612 225.349C175.245 226.231 176.459 227.003 176.828 226.114C179.623 219.394 184.652 213.907 190.814 210.714C192.545 209.817 194.36 209.129 196.225 208.631C197.105 208.396 196.733 206.935 195.852 207.17Z" fill="#0B0304"/>
<path d="M193.044 214.813C186.616 218.416 181.156 223.871 177.322 230.482C176.841 231.311 178.06 232.073 178.539 231.247C182.25 224.846 187.536 219.607 193.756 216.12C194.559 215.67 193.848 214.362 193.044 214.813Z" fill="#0B0304"/>
<path d="M210.93 192.928C203.017 189.333 193.808 189.774 186.13 193.876C183.974 195.029 181.97 196.481 180.154 198.181C179.47 198.821 180.47 199.89 181.15 199.251C187.218 193.573 195.69 191.045 203.632 192.286C205.888 192.639 208.118 193.281 210.219 194.236C210.572 194.396 210.97 194.347 211.183 193.964C211.359 193.649 211.281 193.087 210.93 192.928Z" fill="#0B0304"/>
<path d="M178.446 246.381C172.007 252.499 166.904 261.109 167.66 270.692C167.872 273.38 168.538 275.984 169.7 278.378C170.119 279.243 171.336 278.478 170.916 277.614C166.938 269.42 169.59 259.665 174.671 252.8C176.104 250.863 177.718 249.09 179.442 247.453C180.123 246.805 179.124 245.738 178.446 246.381Z" fill="#0B0304"/>
<path d="M185.336 251.284C185.255 250.321 183.846 250.312 183.927 251.284C184.496 258.057 183.505 264.942 180.985 271.186C180.628 272.071 181.841 272.843 182.201 271.951C184.821 265.458 185.928 258.339 185.336 251.284Z" fill="#0B0304"/>
<path d="M188.252 252.203C188.092 251.245 186.735 251.651 186.894 252.606C187.867 258.445 187.232 264.578 185.069 270.038C184.718 270.925 185.931 271.697 186.286 270.803C188.61 264.934 189.299 258.484 188.252 252.203Z" fill="#0B0304"/>
<path d="M240.08 329.617C233.6 331.992 227.466 335.431 221.972 339.827C220.416 341.073 218.909 342.389 217.457 343.774C216.778 344.422 217.777 345.489 218.453 344.844C224.849 338.743 232.362 334.043 240.455 331.077C241.308 330.765 240.941 329.301 240.08 329.617Z" fill="#0B0304"/>
<path d="M248.746 339.195C239.913 342.177 231.668 347.016 224.545 353.373C222.538 355.163 220.629 357.077 218.821 359.096C218.192 359.799 219.186 360.87 219.817 360.167C226.112 353.138 233.667 347.473 241.971 343.534C244.301 342.429 246.691 341.476 249.121 340.655C249.982 340.365 249.614 338.902 248.746 339.195Z" fill="#0B0304"/>
<path d="M327.307 400.67C327.306 400.663 327.304 400.656 327.303 400.648C325.693 388.576 322.07 376.779 316.358 366.223C310.964 356.256 303.675 347.505 294.93 340.812C290.104 337.119 284.85 334.102 279.302 331.868C279.148 331.806 279.01 331.803 278.891 331.843C278.87 331.642 278.767 331.451 278.546 331.324C274.85 329.203 270.971 327.465 266.968 326.137C266.957 326.124 266.946 326.112 266.934 326.1C266.994 325.991 267.028 325.855 267.02 325.691C266.481 315.046 262.355 304.748 255.638 296.918C253.746 294.711 251.646 292.726 249.386 290.965C248.65 290.393 247.946 291.707 248.674 292.273C256.402 298.287 261.99 307.302 264.382 317.212C265.053 319.989 265.466 322.827 265.611 325.692C265.626 325.971 265.752 326.17 265.925 326.289C264.252 328.328 261.305 328.418 258.982 328.893C256.395 329.423 253.831 330.087 251.302 330.879C246.245 332.461 241.322 334.553 236.614 337.087C227.248 342.128 218.702 348.971 211.543 357.192C207.494 361.843 203.888 366.944 200.82 372.394C200.35 373.229 201.567 373.991 202.036 373.158C207.463 363.517 214.598 355.024 222.89 348.136C231.178 341.253 240.624 335.953 250.645 332.669C253.45 331.75 256.301 330.987 259.181 330.389C261.709 329.866 264.778 329.701 266.689 327.63C270.514 328.907 274.211 330.562 277.748 332.583C276.463 333.129 275.057 333.327 273.709 333.617C272.283 333.924 270.863 334.263 269.45 334.633C266.567 335.39 263.714 336.279 260.902 337.293C255.332 339.3 249.911 341.795 244.71 344.731C234.255 350.632 224.663 358.338 216.458 367.467C211.829 372.618 207.644 378.229 203.981 384.212C203.726 384.628 203.918 385.029 204.233 385.214C199.379 388.336 194.614 391.615 189.942 395.042C188.99 386.746 188.11 378.44 187.304 370.125C186.462 361.428 185.701 352.721 185.022 344.007C184.638 339.087 184.281 334.166 183.948 329.241C183.882 328.275 182.474 328.267 182.539 329.241C183.128 337.963 183.796 346.678 184.546 355.385C185.297 364.092 186.129 372.792 187.041 381.48C187.55 386.324 188.084 391.164 188.642 396.001C187.374 396.944 186.11 397.896 184.856 398.861C180.559 402.164 176.35 405.599 172.229 409.152C171.522 409.762 172.524 410.828 173.225 410.223C180.555 403.902 188.181 397.978 196.062 392.475C203.874 387.02 211.937 381.978 220.21 377.375C224.768 374.84 229.39 372.442 234.068 370.176C234.189 370.186 234.318 370.161 234.449 370.09C241.282 366.384 248.116 362.678 254.95 358.972C258.366 357.119 261.783 355.267 265.2 353.413L270.221 350.691C271.058 350.236 271.894 349.783 272.731 349.329C273.427 348.952 274.102 348.534 274.868 348.344C275.27 348.244 275.974 348.108 276.268 348.528C276.698 349.141 275.971 350.442 275.686 350.997C274.882 352.563 273.676 353.812 272.211 354.653C271.461 354.726 270.71 354.799 269.961 354.872C269.066 354.96 269.057 356.474 269.961 356.386C277.715 355.63 285.47 354.867 293.225 354.117C294.872 353.958 296.8 353.709 298.298 354.646C299.41 355.341 300.361 356.886 299.642 358.245C299.016 359.43 297.561 359.882 296.419 360.212C294.581 360.744 292.728 361.223 290.883 361.727C288.987 362.245 287.09 362.762 285.194 363.28C283.33 363.789 281.43 364.223 279.587 364.814C278.953 365.018 278.253 365.406 278.064 366.149C277.897 366.808 278.162 367.474 278.695 367.83C279.202 368.168 279.864 368.242 280.446 368.177C281.354 368.075 282.262 367.857 283.162 367.686C286.962 366.963 290.746 366.147 294.512 365.243C296.092 364.863 297.707 364.296 299.333 364.206C300.524 364.141 302.036 364.431 302.278 365.94C302.536 367.549 301.356 368.873 300.146 369.568C298.613 370.448 296.812 370.852 295.158 371.387L283.942 375.023C283.007 375.325 282.072 375.628 281.138 375.932C280.272 376.212 280.641 377.674 281.512 377.392C285.401 376.132 289.289 374.871 293.178 373.611C295.086 372.993 297.014 372.418 298.906 371.743C299.274 371.612 299.642 371.468 300.002 371.305C298.778 374.583 295.977 376.843 293.13 378.426C289.546 380.42 285.606 381.595 282.198 383.964C281.44 384.491 282.145 385.803 282.91 385.272C286.151 383.018 290.322 381.645 293.96 379.633C286.862 391.044 273.927 395.773 261.856 397.893C257.846 398.598 253.805 399.073 249.766 399.549C249.511 399.579 249.328 399.725 249.218 399.916C249.045 399.901 248.862 399.969 248.707 400.161C242.911 407.348 237.105 414.532 230.998 421.417C224.921 428.267 218.538 434.829 211.624 440.702C207.731 444.008 203.663 447.078 199.425 449.853C198.651 450.359 199.358 451.669 200.136 451.161C207.698 446.211 214.686 440.309 221.214 433.894C225.754 429.433 230.074 424.726 234.268 419.893C234.35 420.011 234.474 420.105 234.645 420.151C234.785 420.189 234.926 420.225 235.066 420.262C235.106 420.277 235.149 420.289 235.195 420.296C247.803 423.633 260.912 424.706 273.85 423.549C286.913 422.38 299.773 418.976 311.824 413.429C315.205 411.873 318.518 410.146 321.746 408.251C324.4 406.69 327.814 404.444 327.307 400.67ZM324.351 404.609C323.269 405.666 321.961 406.402 320.683 407.145C317.86 408.788 314.974 410.303 312.034 411.688C306.211 414.431 300.173 416.651 294.018 418.356C281.704 421.768 268.902 423.083 256.21 422.228C249.242 421.759 242.322 420.619 235.542 418.823C235.518 418.815 235.491 418.808 235.464 418.803C235.395 418.784 235.326 418.766 235.256 418.748C236.778 416.979 238.283 415.196 239.777 413.402C243.125 409.38 246.416 405.305 249.704 401.228C249.75 401.172 249.784 401.113 249.812 401.054C257.162 400.189 264.566 399.319 271.699 397.137C277.86 395.251 283.787 392.326 288.766 387.944C291.458 385.573 293.812 382.768 295.66 379.593C295.866 379.24 295.762 378.899 295.538 378.689C298.232 376.943 300.47 374.67 301.553 371.145C301.637 370.872 301.578 370.646 301.446 370.485C302.01 370.083 302.513 369.594 302.913 368.981C303.733 367.724 304.022 365.948 303.298 364.567C302.594 363.222 301.187 362.705 299.822 362.679C298.204 362.648 296.606 363.179 295.042 363.56C293.048 364.047 291.049 364.51 289.044 364.946C287.078 365.374 285.106 365.778 283.13 366.157C282.202 366.335 281.249 366.593 280.309 366.673C280.087 366.692 279.722 366.719 279.522 366.587C279.372 366.488 279.455 366.486 279.693 366.369C280.507 365.969 281.516 365.844 282.384 365.607C283.37 365.338 284.356 365.069 285.342 364.8L291.258 363.184C293.179 362.659 295.117 362.18 297.024 361.601C298.317 361.209 299.698 360.641 300.556 359.474C301.478 358.22 301.505 356.562 300.762 355.199C299.937 353.683 298.466 352.834 296.885 352.581C295.022 352.282 293.109 352.611 291.248 352.792C289.193 352.993 287.138 353.193 285.083 353.394C281.716 353.722 278.35 354.051 274.982 354.379C275.526 353.837 276.015 353.23 276.438 352.568C277.225 351.336 278.296 349.3 277.518 347.822C276.813 346.483 275.146 346.614 273.982 347.039C273.154 347.342 272.382 347.823 271.602 348.246C270.696 348.737 269.79 349.229 268.882 349.72C261.386 353.786 253.89 357.851 246.394 361.916C242.301 364.136 238.206 366.356 234.113 368.577C234.013 368.576 233.907 368.598 233.8 368.65C225.203 372.796 216.798 377.398 208.626 382.441C207.608 383.07 206.594 383.705 205.583 384.347C211.983 374.046 219.974 364.918 229.075 357.326C238.306 349.626 248.705 343.497 259.727 339.322C262.812 338.154 265.946 337.138 269.117 336.28C270.703 335.85 272.299 335.462 273.902 335.113C275.721 334.719 277.585 334.459 279.241 333.5C279.255 333.491 279.266 333.481 279.28 333.472C288.838 337.393 297.442 343.776 304.497 351.717C312.035 360.2 317.721 370.473 321.429 381.488C323.56 387.82 325.054 394.388 325.943 401.052C325.944 401.058 325.946 401.063 325.946 401.069V401.072C326.139 402.491 325.271 403.71 324.351 404.609Z" fill="#0B0304"/>
<path d="M371.976 486.015C365.078 478.382 357.838 471.109 350.282 464.235C342.708 457.343 334.821 450.846 326.66 444.778C322.189 441.453 317.633 438.261 313.003 435.199C315.133 434.063 317.199 432.793 319.177 431.365C324.689 427.389 329.557 422.142 332.379 415.61C332.735 414.785 333.058 413.945 333.353 413.093C333.669 412.178 332.307 411.783 331.994 412.691C329.706 419.319 325.251 424.786 319.986 428.915C314.443 433.262 308.096 436.255 301.553 438.382C293.887 440.874 285.932 442.228 277.937 442.612C269.888 442.998 261.804 442.431 253.845 441.11C245.845 439.783 237.955 437.719 230.242 435.087C229.29 434.762 228.342 434.428 227.395 434.086C226.534 433.776 226.164 435.238 227.021 435.547C234.86 438.374 242.881 440.634 251.032 442.142C259.102 443.635 267.302 444.411 275.494 444.213C283.649 444.017 291.805 442.856 299.677 440.538C303.76 439.337 307.791 437.831 311.636 435.907C311.686 436.042 311.778 436.166 311.924 436.261C320.332 441.805 328.49 447.785 336.358 454.18C344.234 460.58 351.814 467.403 359.07 474.601C363.146 478.645 367.117 482.809 370.981 487.086C371.613 487.786 372.609 486.714 371.976 486.015Z" fill="#0B0304"/>
<path d="M235.911 424.516C235.429 427.606 234.947 430.694 234.464 433.783C234.316 434.737 235.673 435.146 235.823 434.185C236.305 431.096 236.787 428.008 237.269 424.919C237.418 423.966 236.061 423.556 235.911 424.516Z" fill="#0B0304"/>
<path d="M253.928 438.333C253.554 434.897 253.41 431.44 253.495 427.982C253.519 427.008 252.11 427.008 252.086 427.982C252.001 431.44 252.145 434.897 252.519 438.333C252.623 439.289 254.034 439.301 253.928 438.333Z" fill="#0B0304"/>
<path d="M257.618 433.527C257.547 431.894 257.647 430.097 257.096 428.546C256.776 427.645 255.412 428.036 255.737 428.949C256.269 430.444 256.152 432.199 256.22 433.775C256.294 435.473 256.368 437.17 256.441 438.867C256.484 439.837 257.892 439.843 257.85 438.867C257.772 437.088 257.695 435.308 257.618 433.527Z" fill="#0B0304"/>
<path d="M272.755 438.049C272.424 434.793 272.018 431.544 271.537 428.309C271.394 427.349 270.037 427.757 270.178 428.711C270.639 431.813 271.029 434.927 271.346 438.049C271.444 439.008 272.854 439.019 272.755 438.049Z" fill="#0B0304"/>
<path d="M287.488 436.541C286.652 433.607 285.817 430.674 284.981 427.74C284.716 426.812 283.356 427.207 283.622 428.143C284.458 431.076 285.293 434.01 286.129 436.943C286.394 437.873 287.755 437.477 287.488 436.541Z" fill="#0B0304"/>
<path d="M304.228 430.542C303.465 427.704 302.703 424.866 301.94 422.029C301.689 421.094 300.329 421.492 300.582 422.432C301.344 425.269 302.107 428.107 302.869 430.944C303.12 431.878 304.48 431.481 304.228 430.542Z" fill="#0B0304"/>
<path d="M308.849 430.044C307.565 426.878 306.281 423.711 304.998 420.544C304.636 419.653 303.423 420.423 303.781 421.309C305.065 424.475 306.349 427.642 307.632 430.809C307.994 431.7 309.208 430.93 308.849 430.044Z" fill="#0B0304"/>
<path d="M322.707 421.929C321.127 419.552 319.548 417.175 317.969 414.797C317.447 414.011 316.224 414.766 316.753 415.561C318.332 417.938 319.911 420.316 321.491 422.693C322.012 423.479 323.235 422.724 322.707 421.929Z" fill="#0B0304"/>
</g>
<ellipse cx="416.5" cy="184.5" rx="6.5" ry="7.5" fill="#E2AFA3"/>
<ellipse cx="443" cy="187" rx="6" ry="7" fill="#E2AFA3"/>
</g>
</g>
<defs>
<filter id="filter0_d_53_4" x="0.5" y="0.5" width="629" height="539" filterUnits="userSpaceOnUse" color-interpolation-filters="sRGB">
<feFlood flood-opacity="0" result="BackgroundImageFix"/>
<feColorMatrix in="SourceAlpha" type="matrix" values="0 0 0 0 0 0 0 0 0 0 0 0 0 0 0 0 0 0 127 0" result="hardAlpha"/>
<feMorphology radius="18" operator="erode" in="SourceAlpha" result="effect1_dropShadow_53_4"/>
<feOffset dy="1"/>
<feGaussianBlur stdDeviation="36.25"/>
<feComposite in2="hardAlpha" operator="out"/>
<feColorMatrix type="matrix" values="0 0 0 0 0.607843 0 0 0 0 0.94902 0 0 0 0 0.917647 0 0 0 0.4 0"/>
<feBlend mode="normal" in2="BackgroundImageFix" result="effect1_dropShadow_53_4"/>
<feBlend mode="normal" in="SourceGraphic" in2="effect1_dropShadow_53_4" result="shape"/>
</filter>
<clipPath id="clip0_53_4">
<rect x="55" y="54" width="520" height="430" rx="215" fill="white"/>
</clipPath>
</defs>
</svg>
